<svg width="48" height="22" viewBox="0 0 48 22" fill="none" xmlns="http://www.w3.org/2000/svg">
<path d="M47.0438 0H16.0605C15.5324 0 15.1043 0.428063 15.1043 0.956156V2.75944H5.99089C5.46279 2.75944 5.03473 3.1875 5.03473 3.71559C5.03473 4.24369 5.46279 4.67175 5.99089 4.67175H15.1043V17.0891H9.65735C9.12926 17.0891 8.7012 17.5172 8.7012 18.0453C8.7012 18.5734 9.12926 19.0014 9.65735 19.0014H15.1043V20.8047C15.1043 21.3328 15.5324 21.7609 16.0605 21.7609H47.0438C47.5719 21.7609 48 21.3328 48 20.8047V0.956156C48 0.428063 47.5719 0 47.0438 0ZM44.6851 1.91231L31.5535 12.6922L18.4818 1.91231H44.6851ZM46.0877 19.8486H17.0167V3.18272L30.9438 14.668C31.1205 14.8136 31.3363 14.8866 31.5522 14.8866C31.7673 14.8866 31.9826 14.8142 32.1588 14.6694L46.0877 3.23512V19.8486Z" fill="#FF8E6E"/>
<path d="M11.2193 9.82745H0.956156C0.428062 9.82745 0 10.2555 0 10.7836C0 11.3117 0.428062 11.7398 0.956156 11.7398H11.2193C11.7474 11.7398 12.1755 11.3117 12.1755 10.7836C12.1756 10.2555 11.7474 9.82745 11.2193 9.82745Z" fill="#FF8E6E"/>
<path d="M6.50198 17.0892H5.99095C5.46285 17.0892 5.03479 17.5172 5.03479 18.0453C5.03479 18.5734 5.46285 19.0015 5.99095 19.0015H6.50198C7.03007 19.0015 7.45813 18.5734 7.45813 18.0453C7.45813 17.5172 7.03007 17.0892 6.50198 17.0892Z" fill="#FF8E6E"/>
</svg>
