<svg width="34" height="34" viewBox="0 0 34 34" fill="none" xmlns="http://www.w3.org/2000/svg">
<rect width="34" height="34" fill="#515070"/>
<path d="M18.3926 24.4863V21.5381C18.3926 21.1381 18.7169 20.8141 19.1166 20.8141C20.5432 20.8141 21.3192 19.3511 21.4269 16.4631H19.1166C18.7169 16.4631 18.3926 16.1386 18.3926 15.739V9.51383C18.3926 9.11396 18.7169 8.78996 19.1166 8.78996H25.2762C25.6758 8.78996 26.0002 9.11432 26.0002 9.51383V15.7391C26.0002 17.1234 25.8605 18.3937 25.5862 19.5157C25.3043 20.6658 24.8717 21.6713 24.3006 22.5045C23.7132 23.3608 22.9779 24.0327 22.1162 24.5007C21.248 24.9716 20.2388 25.2106 19.1163 25.2106C18.7169 25.2103 18.3926 24.886 18.3926 24.4863ZM9.05492 20.8139C8.6552 20.8139 8.33105 21.1381 8.33105 21.5376V24.4864C8.33105 24.886 8.6552 25.2101 9.05492 25.2101C10.1769 25.2101 11.1866 24.971 12.0542 24.5001C12.9163 24.0322 13.6516 23.3609 14.2389 22.504C14.8104 21.6707 15.2429 20.6652 15.5248 19.5145C15.7993 18.3926 15.9387 17.1222 15.9387 15.7385V9.51323C15.9387 9.11335 15.6142 8.78936 15.2147 8.78936H9.05492C8.6552 8.78936 8.33105 9.11366 8.33105 9.51323V15.7385C8.33105 16.1383 8.6552 16.4625 9.05492 16.4625H11.3328C11.2264 19.3508 10.4615 20.8139 9.05492 20.8139Z" fill="white"/>
</svg>

